<svg xmlns="http://www.w3.org/2000/svg" xmlns:xlink="http://www.w3.org/1999/xlink" width="500" zoomAndPan="magnify" viewBox="0 0 375 374.999991" height="500" preserveAspectRatio="xMidYMid meet" version="1.0"><defs><g/><clipPath id="4cc03f5766"><path d="M 208.667969 103.367188 L 224.484375 103.367188 L 224.484375 299.5 L 208.667969 299.5 Z M 208.667969 103.367188 " clip-rule="nonzero"/></clipPath></defs><rect x="-37.5" width="450" fill="#ffffff" y="-37.499999" height="449.999989" fill-opacity="1"/><rect x="-37.5" width="450" fill="#ffffff" y="-37.499999" height="449.999989" fill-opacity="1"/><g fill="#525050" fill-opacity="1"><g transform="translate(180.679846, 298.277135)"><g><path d="M 187.828125 -196.71875 C 186.535156 -176.15625 185.890625 -157.816406 185.890625 -141.703125 C 185.890625 -133.179688 186.164062 -126.515625 186.71875 -121.703125 L 180.328125 -121.703125 C 174.210938 -145.972656 166.335938 -163.476562 156.703125 -174.21875 C 147.078125 -184.957031 136.707031 -190.328125 125.59375 -190.328125 L 125.3125 -190.328125 L 125.3125 -31.390625 C 125.3125 -23.617188 126.097656 -17.972656 127.671875 -14.453125 C 129.242188 -10.929688 132.113281 -8.566406 136.28125 -7.359375 C 140.457031 -6.160156 147.082031 -5.5625 156.15625 -5.5625 L 156.15625 0 C 130.039062 -0.550781 109.757812 -0.828125 95.3125 -0.828125 C 82.15625 -0.828125 63.070312 -0.550781 38.0625 0 L 38.0625 -5.5625 C 47.144531 -5.5625 53.769531 -6.160156 57.9375 -7.359375 C 62.101562 -8.566406 64.972656 -10.929688 66.546875 -14.453125 C 68.117188 -17.972656 68.90625 -23.617188 68.90625 -31.390625 L 68.90625 -190.328125 L 68.625 -190.328125 C 57.332031 -190.328125 46.914062 -185 37.375 -174.34375 C 27.832031 -163.695312 20.003906 -146.148438 13.890625 -121.703125 L 7.5 -121.703125 C 8.050781 -126.515625 8.328125 -133.179688 8.328125 -141.703125 C 8.328125 -157.816406 7.679688 -176.15625 6.390625 -196.71875 C 23.984375 -196.164062 54.269531 -195.890625 97.25 -195.890625 C 140.039062 -195.890625 170.234375 -196.164062 187.828125 -196.71875 Z M 187.828125 -196.71875 "/></g></g></g><g fill="#846d62" fill-opacity="1"><g transform="translate(0.0000045, 298.853004)"><g><path d="M 260.359375 -191.171875 C 254.429688 -190.796875 250.125 -190.050781 247.4375 -188.9375 C 244.75 -187.832031 242.941406 -185.703125 242.015625 -182.546875 C 241.085938 -179.398438 240.625 -174.304688 240.625 -167.265625 L 240.625 -29.453125 C 240.625 -22.410156 241.132812 -17.316406 242.15625 -14.171875 C 243.175781 -11.023438 244.984375 -8.894531 247.578125 -7.78125 C 250.171875 -6.664062 254.429688 -5.925781 260.359375 -5.5625 L 260.359375 0 C 249.054688 -0.550781 232.660156 -0.828125 211.171875 -0.828125 C 188.753906 -0.828125 172.269531 -0.550781 161.71875 0 L 161.71875 -5.5625 C 168.382812 -5.925781 173.242188 -6.664062 176.296875 -7.78125 C 179.359375 -8.894531 181.441406 -11.023438 182.546875 -14.171875 C 183.660156 -17.316406 184.21875 -22.410156 184.21875 -29.453125 L 184.21875 -171.4375 L 117.25 -0.28125 L 112.8125 -0.28125 L 34.453125 -178.65625 L 34.453125 -54.453125 C 34.453125 -40.753906 35.003906 -30.894531 36.109375 -24.875 C 37.222656 -18.851562 39.679688 -14.453125 43.484375 -11.671875 C 47.285156 -8.890625 53.628906 -6.851562 62.515625 -5.5625 L 62.515625 0 C 54.921875 -0.550781 44.546875 -0.828125 31.390625 -0.828125 C 21.578125 -0.828125 13.890625 -0.550781 8.328125 0 L 8.328125 -5.5625 C 14.078125 -6.851562 18.335938 -8.84375 21.109375 -11.53125 C 23.890625 -14.21875 25.742188 -18.335938 26.671875 -23.890625 C 27.597656 -29.453125 28.0625 -37.789062 28.0625 -48.90625 L 28.0625 -167.265625 C 28.0625 -174.304688 27.550781 -179.398438 26.53125 -182.546875 C 25.507812 -185.703125 23.703125 -187.832031 21.109375 -188.9375 C 18.523438 -190.050781 14.265625 -190.796875 8.328125 -191.171875 L 8.328125 -196.71875 C 13.890625 -196.164062 21.578125 -195.890625 31.390625 -195.890625 C 53.617188 -195.890625 72.796875 -196.164062 88.921875 -196.71875 L 141.4375 -78.640625 L 187 -195.890625 L 211.171875 -195.890625 C 232.660156 -195.890625 249.054688 -196.164062 260.359375 -196.71875 Z M 260.359375 -191.171875 "/></g></g></g><g clip-path="url(#4cc03f5766)"><path fill="#2b2b2b" d="M 208.667969 103.367188 L 224.484375 103.367188 L 224.484375 299.5 L 208.667969 299.5 Z M 208.667969 103.367188 " fill-opacity="1" fill-rule="nonzero"/></g><g fill="#ddc6a4" fill-opacity="1"><g transform="translate(211.969689, 122.685576)"><g><path d="M 0 1.125 L 9.234375 1.125 L 9.234375 2.234375 L 0.984375 2.234375 L 0.984375 6.53125 L 0 6.53125 Z M 0 1.125 "/></g></g></g><g fill="#ddc6a4" fill-opacity="1"><g transform="translate(211.969689, 132.398474)"><g><path d="M 0 1.125 L 9.234375 1.125 L 9.234375 6.6875 L 8.234375 6.6875 L 8.234375 2.234375 L 5.125 2.234375 L 5.125 6.390625 L 4.125 6.390625 L 4.125 2.234375 L 0.984375 2.234375 L 0.984375 6.765625 L 0 6.765625 Z M 0 1.125 "/></g></g></g><g fill="#ddc6a4" fill-opacity="1"><g transform="translate(211.969689, 142.561236)"><g><path d="M 9.234375 1.125 L 9.234375 2.453125 L 1.5625 5.59375 L 1.5625 5.6875 L 9.234375 8.828125 L 9.234375 10.171875 L 0 10.171875 L 0 9.125 L 7.015625 9.125 L 7.015625 9.03125 L 0 6.140625 L 0 5.140625 L 7.015625 2.25 L 7.015625 2.15625 L 0 2.15625 L 0 1.125 Z M 9.234375 1.125 "/></g></g></g><g fill="#ddc6a4" fill-opacity="1"><g transform="translate(211.969689, 156.70085)"><g><path d="M 9.234375 2.234375 L 0 2.234375 L 0 1.125 L 9.234375 1.125 Z M 9.234375 2.234375 "/></g></g></g><g fill="#ddc6a4" fill-opacity="1"><g transform="translate(211.969689, 162.634827)"><g><path d="M 9.234375 8.4375 L 0 8.4375 L 0 7.359375 L 7.25 2.328125 L 7.25 2.234375 L 0 2.234375 L 0 1.125 L 9.234375 1.125 L 9.234375 2.203125 L 1.96875 7.25 L 1.96875 7.328125 L 9.234375 7.328125 Z M 9.234375 8.4375 "/></g></g></g><g fill="#ddc6a4" fill-opacity="1"><g transform="translate(211.969689, 174.75902)"><g><path d="M 0 1.125 L 9.234375 1.125 L 9.234375 2.234375 L 5.125 2.234375 L 5.125 7.15625 L 9.234375 7.15625 L 9.234375 8.265625 L 0 8.265625 L 0 7.15625 L 4.125 7.15625 L 4.125 2.234375 L 0 2.234375 Z M 0 1.125 "/></g></g></g><g fill="#ddc6a4" fill-opacity="1"><g transform="translate(211.969689, 186.721266)"><g><path d="M 8.234375 0.609375 L 9.234375 0.609375 L 9.234375 7.53125 L 8.234375 7.53125 L 8.234375 4.625 L 0 4.625 L 0 3.515625 L 8.234375 3.515625 Z M 8.234375 0.609375 "/></g></g></g><g fill="#ddc6a4" fill-opacity="1"><g transform="translate(211.969689, 197.441871)"><g><path d="M 0 1.125 L 9.234375 1.125 L 9.234375 4.234375 C 9.234375 4.953125 9.109375 5.539062 8.859375 6 C 8.617188 6.46875 8.285156 6.8125 7.859375 7.03125 C 7.429688 7.257812 6.941406 7.375 6.390625 7.375 C 5.785156 7.375 5.253906 7.234375 4.796875 6.953125 C 4.335938 6.671875 4.007812 6.234375 3.8125 5.640625 L 0 7.734375 L 0 6.4375 L 3.609375 4.484375 C 3.609375 4.410156 3.609375 4.332031 3.609375 4.25 L 3.609375 2.234375 L 0 2.234375 Z M 4.609375 2.234375 L 4.609375 4.21875 C 4.609375 4.957031 4.765625 5.484375 5.078125 5.796875 C 5.398438 6.109375 5.835938 6.265625 6.390625 6.265625 C 6.953125 6.265625 7.398438 6.109375 7.734375 5.796875 C 8.066406 5.484375 8.234375 4.953125 8.234375 4.203125 L 8.234375 2.234375 Z M 4.609375 2.234375 "/></g></g></g><g fill="#ddc6a4" fill-opacity="1"><g transform="translate(211.969689, 208.126478)"><g><path d="M 9.234375 2.234375 L 0 2.234375 L 0 1.125 L 9.234375 1.125 Z M 9.234375 2.234375 "/></g></g></g><g fill="#ddc6a4" fill-opacity="1"><g transform="translate(211.969689, 214.060452)"><g><path d="M 0 1.125 L 9.234375 1.125 L 9.234375 6.6875 L 8.234375 6.6875 L 8.234375 2.234375 L 5.125 2.234375 L 5.125 6.390625 L 4.125 6.390625 L 4.125 2.234375 L 0.984375 2.234375 L 0.984375 6.765625 L 0 6.765625 Z M 0 1.125 "/></g></g></g><g fill="#ddc6a4" fill-opacity="1"><g transform="translate(211.969689, 224.22321)"><g><path d="M 8.234375 0.609375 L 9.234375 0.609375 L 9.234375 7.53125 L 8.234375 7.53125 L 8.234375 4.625 L 0 4.625 L 0 3.515625 L 8.234375 3.515625 Z M 8.234375 0.609375 "/></g></g></g><g fill="#ddc6a4" fill-opacity="1"><g transform="translate(211.969689, 234.943815)"><g><path d="M -0.078125 1.75 C -0.078125 1.53125 0 1.335938 0.15625 1.171875 C 0.320312 1.015625 0.515625 0.9375 0.734375 0.9375 C 0.960938 0.9375 1.15625 1.015625 1.3125 1.171875 C 1.46875 1.335938 1.546875 1.53125 1.546875 1.75 C 1.546875 1.96875 1.46875 2.15625 1.3125 2.3125 C 1.15625 2.476562 0.960938 2.5625 0.734375 2.5625 C 0.515625 2.5625 0.320312 2.476562 0.15625 2.3125 C 0 2.15625 -0.078125 1.96875 -0.078125 1.75 Z M -0.078125 1.75 "/></g></g></g><g fill="#ddc6a4" fill-opacity="1"><g transform="translate(211.969689, 241.021748)"><g><path d="M 9.234375 2.234375 L 0 2.234375 L 0 1.125 L 9.234375 1.125 Z M 9.234375 2.234375 "/></g></g></g><g fill="#ddc6a4" fill-opacity="1"><g transform="translate(211.969689, 246.955722)"><g><path d="M 0 3.96875 L 0 1.125 L 9.234375 1.125 L 9.234375 4.09375 C 9.234375 4.988281 9.046875 5.753906 8.671875 6.390625 C 8.304688 7.023438 7.78125 7.507812 7.09375 7.84375 C 6.40625 8.1875 5.582031 8.359375 4.625 8.359375 C 3.664062 8.359375 2.835938 8.1875 2.140625 7.84375 C 1.453125 7.5 0.921875 7 0.546875 6.34375 C 0.179688 5.695312 0 4.90625 0 3.96875 Z M 0.984375 2.234375 L 0.984375 3.890625 C 0.984375 5.035156 1.304688 5.882812 1.953125 6.4375 C 2.609375 7 3.5 7.28125 4.625 7.28125 C 5.75 7.28125 6.628906 7.003906 7.265625 6.453125 C 7.910156 5.910156 8.234375 5.097656 8.234375 4.015625 L 8.234375 2.234375 Z M 0.984375 2.234375 "/></g></g></g><g fill="#ddc6a4" fill-opacity="1"><g transform="translate(211.969689, 258.648039)"><g><path d="M -0.078125 1.75 C -0.078125 1.53125 0 1.335938 0.15625 1.171875 C 0.320312 1.015625 0.515625 0.9375 0.734375 0.9375 C 0.960938 0.9375 1.15625 1.015625 1.3125 1.171875 C 1.46875 1.335938 1.546875 1.53125 1.546875 1.75 C 1.546875 1.96875 1.46875 2.15625 1.3125 2.3125 C 1.15625 2.476562 0.960938 2.5625 0.734375 2.5625 C 0.515625 2.5625 0.320312 2.476562 0.15625 2.3125 C 0 2.15625 -0.078125 1.96875 -0.078125 1.75 Z M -0.078125 1.75 "/></g></g></g><g fill="#ddc6a4" fill-opacity="1"><g transform="translate(211.969689, 264.725972)"><g><path d="M 9.234375 1.5 L 1.453125 4.234375 L 1.453125 4.34375 L 9.234375 7.078125 L 9.234375 8.25 L 0 4.859375 L 0 3.71875 L 9.234375 0.328125 Z M 9.234375 1.5 "/></g></g></g><g fill="#ddc6a4" fill-opacity="1"><g transform="translate(211.969689, 275.878452)"><g><path d="M 9.234375 8.4375 L 0 8.4375 L 0 7.359375 L 7.25 2.328125 L 7.25 2.234375 L 0 2.234375 L 0 1.125 L 9.234375 1.125 L 9.234375 2.203125 L 1.96875 7.25 L 1.96875 7.328125 L 9.234375 7.328125 Z M 9.234375 8.4375 "/></g></g></g></svg>